<?xml version="1.0" standalone="no"?>
<!DOCTYPE svg PUBLIC "-//W3C//DTD SVG 20010904//EN"
 "http://www.w3.org/TR/2001/REC-SVG-20010904/DTD/svg10.dtd">
<svg version="1.0" xmlns="http://www.w3.org/2000/svg"
 width="512.000000pt" height="512.000000pt" viewBox="0 0 512.000000 512.000000"
 preserveAspectRatio="xMidYMid meet">

<g transform="translate(0.000000,512.000000) scale(0.100000,-0.100000)"
fill="#000000" stroke="none">
<path d="M1780 5104 c-112 -23 -224 -87 -311 -173 -139 -139 -196 -287 -186
-481 4 -77 12 -123 30 -172 70 -193 223 -341 412 -401 57 -18 94 -22 195 -22
101 0 138 4 195 22 192 61 355 223 416 413 30 91 36 244 15 335 -43 180 -172
344 -336 424 -139 68 -284 87 -430 55z"/>
<path d="M168 4992 c-62 -38 -58 150 -58 -2489 0 -2371 0 -2408 20 -2440 26
-43 68 -63 130 -63 62 0 104 20 130 63 20 32 20 69 20 2445 0 2217 -1 2416
-16 2442 -9 15 -29 35 -44 44 -38 22 -146 21 -182 -2z"/>
<path d="M3468 4987 c-14 -12 -31 -32 -37 -44 -8 -15 -11 -710 -11 -2442 l0
-2421 34 -37 c31 -34 39 -37 99 -41 55 -4 72 -1 100 17 73 45 67 -178 67 2491
0 2623 4 2432 -56 2479 -40 31 -158 30 -196 -2z"/>
<path d="M1855 3690 l-550 -5 -46 -27 c-25 -15 -57 -44 -71 -65 -38 -55 -498
-1457 -498 -1516 0 -203 253 -297 387 -144 20 23 51 92 93 206 40 107 67 166
72 159 4 -7 8 -471 8 -1030 0 -994 0 -1018 20 -1071 27 -73 79 -130 148 -164
78 -38 184 -40 255 -4 64 33 115 85 146 151 l26 55 3 663 3 662 64 0 64 0 3
-668 3 -667 24 -49 c55 -112 148 -171 271 -171 123 0 216 59 271 171 l24 49 3
1042 c1 574 6 1043 10 1043 4 0 27 -55 51 -123 65 -184 103 -257 149 -289 108
-75 258 -41 322 72 49 90 49 90 -198 840 -122 371 -230 695 -238 719 -34 90
-122 154 -224 162 -25 2 -292 2 -595 -1z"/>
<path d="M4543 3655 c-31 -22 -405 -632 -405 -662 0 -13 5 -30 11 -36 9 -9
121 -12 421 -12 377 0 411 1 427 18 15 14 16 22 6 47 -19 52 -363 604 -394
633 -34 31 -37 32 -66 12z"/>
<path d="M4183 2473 c-28 -5 -52 -38 -46 -62 9 -36 380 -625 406 -644 21 -16
31 -18 49 -10 26 12 406 618 414 662 11 55 8 56 -415 57 -212 1 -396 0 -408
-3z"/>
</g>
</svg>
