<?xml version="1.0" standalone="no"?>
<!DOCTYPE svg PUBLIC "-//W3C//DTD SVG 20010904//EN"
 "http://www.w3.org/TR/2001/REC-SVG-20010904/DTD/svg10.dtd">
<svg version="1.0" xmlns="http://www.w3.org/2000/svg"
 width="512.000000pt" height="512.000000pt" viewBox="0 0 512.000000 512.000000"
 preserveAspectRatio="xMidYMid meet">

<g transform="translate(0.000000,512.000000) scale(0.100000,-0.100000)"
fill="#000000" stroke="none">
<path d="M2930 4904 c-91 -14 -145 -31 -219 -66 -119 -57 -231 -169 -290 -288
-63 -129 -71 -183 -71 -491 l0 -265 28 -55 c75 -149 284 -155 369 -11 l28 47
5 280 c6 310 6 313 74 373 20 17 52 36 73 41 25 7 272 11 713 11 657 0 676 -1
720 -21 56 -25 77 -44 104 -94 l21 -40 0 -1770 0 -1770 -28 -47 c-18 -31 -44
-57 -75 -75 l-47 -28 -670 -3 c-460 -2 -686 0 -721 8 -56 12 -115 55 -142 103
-15 28 -18 72 -22 312 l-5 280 -28 47 c-32 55 -68 83 -128 99 -95 26 -198 -19
-243 -106 -20 -37 -21 -59 -24 -311 -3 -314 5 -372 67 -499 73 -148 219 -276
372 -326 l74 -24 775 0 775 0 67 26 c190 74 323 207 397 397 l26 67 3 1815 c2
1331 0 1831 -9 1875 -34 180 -174 361 -344 444 -136 67 -106 65 -890 67 -390
1 -721 0 -735 -2z"/>
<path d="M1610 3598 c-25 -14 -58 -44 -75 -67 -29 -42 -30 -45 -33 -187 l-3
-144 -540 0 c-381 0 -554 -3 -587 -12 -33 -8 -60 -25 -93 -58 -70 -70 -71 -79
-67 -605 3 -438 4 -451 25 -490 24 -46 54 -75 103 -101 33 -18 71 -19 598 -22
l562 -3 0 -133 c0 -120 2 -137 23 -177 49 -93 175 -134 272 -90 50 22 1298
853 1338 890 51 47 70 96 65 172 -3 57 -8 74 -34 106 -20 26 -247 183 -703
488 l-673 449 -66 4 c-56 3 -74 0 -112 -20z"/>
</g>
</svg>
