<?xml version="1.0" standalone="no"?>
<!DOCTYPE svg PUBLIC "-//W3C//DTD SVG 20010904//EN"
 "http://www.w3.org/TR/2001/REC-SVG-20010904/DTD/svg10.dtd">
<svg version="1.0" xmlns="http://www.w3.org/2000/svg"
 width="512.000000pt" height="512.000000pt" viewBox="0 0 512.000000 512.000000"
 preserveAspectRatio="xMidYMid meet">

<g transform="translate(0.000000,512.000000) scale(0.100000,-0.100000)"
fill="#000000" stroke="none">
<path d="M2462 4065 c-92 -20 -168 -62 -237 -130 -68 -68 -107 -135 -130 -220
-31 -119 -15 -189 51 -220 74 -35 147 13 159 103 10 77 35 133 80 177 121 122
322 88 399 -67 54 -107 23 -243 -72 -315 -38 -29 -58 -35 -181 -59 -13 -3 -36
-18 -52 -34 l-29 -28 0 -136 c0 -133 -1 -136 -22 -140 -13 -3 -59 -12 -103
-21 -44 -10 -112 -30 -150 -46 -39 -16 -500 -274 -1025 -573 -721 -410 -969
-556 -1012 -596 -256 -232 -127 -654 218 -710 37 -6 875 -10 2204 -10 1329 0
2167 4 2204 10 220 36 375 235 352 455 -8 80 -61 187 -119 245 -34 34 -224
147 -719 430 -1406 803 -1331 764 -1510 801 -51 10 -94 19 -95 19 -2 0 -3 27
-3 61 l0 60 38 15 c118 48 196 108 254 198 96 148 103 335 20 490 -37 69 -136
165 -204 199 -59 29 -171 57 -223 56 -16 0 -58 -7 -93 -14z m283 -1312 c39 -8
102 -30 140 -48 106 -48 1916 -1083 1948 -1113 85 -79 72 -221 -25 -288 l-41
-29 -2207 0 -2207 0 -41 29 c-97 67 -110 209 -25 288 32 30 1842 1065 1948
1113 157 72 333 89 510 48z"/>
</g>
</svg>
