<?xml version="1.0" standalone="no"?>
<!DOCTYPE svg PUBLIC "-//W3C//DTD SVG 20010904//EN"
 "http://www.w3.org/TR/2001/REC-SVG-20010904/DTD/svg10.dtd">
<svg version="1.0" xmlns="http://www.w3.org/2000/svg"
 width="512.000000pt" height="512.000000pt" viewBox="0 0 512.000000 512.000000"
 preserveAspectRatio="xMidYMid meet">

<g transform="translate(0.000000,512.000000) scale(0.100000,-0.100000)"
fill="#000000" stroke="none">
<path d="M2436 5104 c-179 -43 -328 -194 -371 -375 -60 -257 81 -513 332 -600
298 -102 620 99 665 416 22 157 -28 302 -147 421 -131 132 -301 181 -479 138z"/>
<path d="M1970 3934 c-113 -24 -204 -77 -301 -174 -77 -76 -93 -99 -142 -201
-91 -187 -125 -344 -134 -624 -9 -276 25 -618 97 -972 34 -168 55 -209 122
-242 52 -25 95 -27 145 -6 48 20 71 41 94 87 25 49 24 77 -7 233 -106 544
-120 1003 -37 1260 31 98 107 225 134 225 5 0 9 -665 9 -1652 l0 -1653 24 -50
c101 -218 408 -215 510 4 21 46 21 52 24 964 l3 917 49 0 50 0 2 -922 3 -923
24 -45 c67 -128 199 -185 336 -146 45 14 69 29 110 69 93 94 85 -73 85 1801
l0 1650 29 -29 c82 -78 144 -268 163 -502 20 -235 -12 -590 -86 -968 -31 -156
-32 -184 -7 -233 23 -46 46 -67 94 -87 50 -21 93 -19 145 6 67 33 87 73 122
244 122 600 131 1127 25 1449 -48 146 -110 252 -205 347 -97 98 -186 149 -305
174 -100 21 -1078 20 -1175 -1z"/>
</g>
</svg>
