<?xml version="1.0" standalone="no"?>
<!DOCTYPE svg PUBLIC "-//W3C//DTD SVG 20010904//EN"
 "http://www.w3.org/TR/2001/REC-SVG-20010904/DTD/svg10.dtd">
<svg version="1.0" xmlns="http://www.w3.org/2000/svg"
 width="512.000000pt" height="512.000000pt" viewBox="0 0 512.000000 512.000000"
 preserveAspectRatio="xMidYMid meet">

<g transform="translate(0.000000,512.000000) scale(0.100000,-0.100000)"
fill="#000000" stroke="none">
<path d="M678 5099 c-43 -22 -78 -81 -78 -129 0 -50 35 -107 80 -130 33 -17
59 -20 172 -20 l133 0 -477 -477 c-262 -263 -483 -492 -492 -510 -61 -122 75
-258 197 -197 18 9 247 230 510 492 l477 477 0 -133 c0 -113 3 -139 20 -172
23 -45 80 -80 130 -80 50 0 107 35 130 80 19 37 20 58 20 370 0 312 -1 333
-20 370 -13 26 -34 47 -60 60 -37 19 -58 20 -372 20 -312 -1 -335 -2 -370 -21z"/>
<path d="M3505 4506 c-40 -18 -73 -56 -85 -97 -6 -20 -10 -285 -10 -666 l0
-633 -647 0 c-629 0 -649 -1 -681 -20 -18 -11 -41 -34 -52 -52 -19 -32 -20
-52 -20 -680 l0 -647 -654 -3 c-643 -3 -655 -3 -682 -24 -15 -11 -37 -33 -48
-48 -21 -27 -21 -38 -24 -772 -2 -731 -2 -745 18 -784 13 -26 34 -47 60 -60
39 -20 54 -20 2180 -20 2126 0 2141 0 2180 20 26 13 47 34 60 60 20 39 20 54
20 2180 0 2126 0 2141 -20 2180 -13 26 -34 47 -60 60 -38 20 -57 20 -772 20
-589 -1 -739 -3 -763 -14z m1315 -2246 l0 -1960 -1960 0 -1960 0 0 555 0 555
646 0 c720 0 692 -3 736 69 l23 36 3 647 3 647 647 3 c626 3 648 4 681 23 18
11 42 36 52 55 18 33 19 70 19 682 l0 648 555 0 555 0 0 -1960z"/>
<path d="M1285 3904 c-16 -9 -245 -230 -507 -492 l-478 -477 0 133 c0 113 -3
139 -20 172 -23 45 -80 80 -130 80 -50 0 -107 -35 -130 -80 -19 -37 -20 -58
-20 -370 0 -312 1 -333 20 -370 13 -26 34 -47 60 -60 37 -19 58 -20 370 -20
312 0 333 1 370 20 45 23 80 80 80 130 0 50 -35 107 -80 130 -33 17 -59 20
-172 20 l-133 0 477 478 c262 262 483 491 492 509 61 123 -78 260 -199 197z"/>
</g>
</svg>
