<?xml version="1.0" standalone="no"?>
<!DOCTYPE svg PUBLIC "-//W3C//DTD SVG 20010904//EN"
 "http://www.w3.org/TR/2001/REC-SVG-20010904/DTD/svg10.dtd">
<svg version="1.0" xmlns="http://www.w3.org/2000/svg"
 width="512.000000pt" height="512.000000pt" viewBox="0 0 512.000000 512.000000"
 preserveAspectRatio="xMidYMid meet">

<g transform="translate(0.000000,512.000000) scale(0.100000,-0.100000)"
fill="#000000" stroke="none">
<path d="M2440 5104 c-197 -52 -341 -214 -371 -416 -9 -63 -8 -90 5 -154 22
-112 58 -178 140 -259 113 -112 218 -152 380 -143 99 6 169 28 240 77 264 182
298 541 72 766 -122 122 -304 172 -466 129z"/>
<path d="M2408 4020 c-238 -23 -378 -74 -492 -180 -256 -240 -486 -848 -656
-1733 -30 -157 -29 -200 7 -239 61 -67 181 -64 227 7 10 15 37 124 61 243 107
531 220 914 353 1195 30 64 56 116 58 114 2 -1 -79 -426 -179 -942 l-183 -940
238 -3 238 -2 0 -673 c0 -460 4 -685 11 -712 7 -25 29 -58 58 -86 74 -74 159
-88 252 -41 35 18 64 42 84 70 l30 44 5 696 5 697 35 0 35 0 5 -697 5 -696 30
-44 c20 -28 49 -52 84 -70 93 -47 178 -33 252 41 29 28 51 61 58 86 7 27 11
252 11 712 l0 673 238 2 238 3 -183 940 c-100 516 -181 941 -179 942 1 2 26
-45 54 -104 135 -286 241 -644 352 -1185 27 -131 57 -249 66 -263 49 -75 179
-73 232 2 10 16 22 41 25 58 6 34 -73 437 -133 673 -182 725 -417 1194 -659
1316 -154 79 -443 119 -683 96z"/>
</g>
</svg>
